<svg xmlns="http://www.w3.org/2000/svg" width="800" height="580" viewBox="0 0 800 580" role="img" aria-label="Final test calibration plot">
<rect width="800" height="580" fill="white"/>
<g font-family="sans-serif" fill="#0f172a">
<text x="60" y="35" font-size="22">Final-test probability calibration</text>
<text x="60" y="58" font-size="13">Held-out later games; each point is a populated probability bin</text>
<path d="M70 480H490 M70 480V80" fill="none" stroke="#334155"/>
<path d="M70 480L490 80" stroke="#94a3b8" stroke-dasharray="5 5"/>
<text x="70.0" y="503" text-anchor="middle" font-size="12">0.0</text>
<text x="55" y="484.0" text-anchor="end" font-size="12">0.0</text>
<text x="154.0" y="503" text-anchor="middle" font-size="12">0.2</text>
<text x="55" y="404.0" text-anchor="end" font-size="12">0.2</text>
<text x="238.0" y="503" text-anchor="middle" font-size="12">0.4</text>
<text x="55" y="324.0" text-anchor="end" font-size="12">0.4</text>
<text x="322.0" y="503" text-anchor="middle" font-size="12">0.6</text>
<text x="55" y="244.0" text-anchor="end" font-size="12">0.6</text>
<text x="406.0" y="503" text-anchor="middle" font-size="12">0.8</text>
<text x="55" y="164.0" text-anchor="end" font-size="12">0.8</text>
<text x="490.0" y="503" text-anchor="middle" font-size="12">1.0</text>
<text x="55" y="84.0" text-anchor="end" font-size="12">1.0</text>
<polyline points="268.17,292.99" stroke="#64748b" fill="none" stroke-width="2"/>
<circle cx="268.17" cy="292.99" r="4" fill="#64748b"><title>n=308</title></circle>
<rect x="520" y="100" width="10" height="10" fill="#64748b"/>
<text x="538" y="110" font-size="12">constant baseline (selected)</text>
<polyline points="99.69,380.00 136.38,338.82 180.05,308.57 219.65,267.76 264.45,293.79 300.27,288.45 343.63,321.86 382.57,263.33 417.36,213.33 463.01,80.00" stroke="#ea580c" fill="none" stroke-width="2"/>
<circle cx="99.69" cy="380.00" r="4" fill="#ea580c"><title>n=8</title></circle>
<circle cx="136.38" cy="338.82" r="4" fill="#ea580c"><title>n=17</title></circle>
<circle cx="180.05" cy="308.57" r="4" fill="#ea580c"><title>n=28</title></circle>
<circle cx="219.65" cy="267.76" r="4" fill="#ea580c"><title>n=49</title></circle>
<circle cx="264.45" cy="293.79" r="4" fill="#ea580c"><title>n=58</title></circle>
<circle cx="300.27" cy="288.45" r="4" fill="#ea580c"><title>n=71</title></circle>
<circle cx="343.63" cy="321.86" r="4" fill="#ea580c"><title>n=43</title></circle>
<circle cx="382.57" cy="263.33" r="4" fill="#ea580c"><title>n=24</title></circle>
<circle cx="417.36" cy="213.33" r="4" fill="#ea580c"><title>n=9</title></circle>
<circle cx="463.01" cy="80.00" r="4" fill="#ea580c"><title>n=1</title></circle>
<rect x="520" y="135" width="10" height="10" fill="#ea580c"/>
<text x="538" y="145" font-size="12">original xgboost</text>
<polyline points="270.03,299.18 282.26,180.00" stroke="#a855f7" fill="none" stroke-width="2"/>
<circle cx="270.03" cy="299.18" r="4" fill="#a855f7"><title>n=292</title></circle>
<circle cx="282.26" cy="180.00" r="4" fill="#a855f7"><title>n=16</title></circle>
<rect x="520" y="170" width="10" height="10" fill="#a855f7"/>
<text x="538" y="180" font-size="12">original sigmoid</text>
<polyline points="148.01,280.00 181.15,346.67 222.82,341.82 261.15,264.62 300.08,314.78 336.49,246.67 383.15,80.00" stroke="#0891b2" fill="none" stroke-width="2"/>
<circle cx="148.01" cy="280.00" r="4" fill="#0891b2"><title>n=4</title></circle>
<circle cx="181.15" cy="346.67" r="4" fill="#0891b2"><title>n=12</title></circle>
<circle cx="222.82" cy="341.82" r="4" fill="#0891b2"><title>n=55</title></circle>
<circle cx="261.15" cy="264.62" r="4" fill="#0891b2"><title>n=117</title></circle>
<circle cx="300.08" cy="314.78" r="4" fill="#0891b2"><title>n=92</title></circle>
<circle cx="336.49" cy="246.67" r="4" fill="#0891b2"><title>n=24</title></circle>
<circle cx="383.15" cy="80.00" r="4" fill="#0891b2"><title>n=4</title></circle>
<rect x="520" y="205" width="10" height="10" fill="#0891b2"/>
<text x="538" y="215" font-size="12">candidate xgboost</text>
<polyline points="230.05,330.00 266.43,302.43 289.38,266.05" stroke="#059669" fill="none" stroke-width="2"/>
<circle cx="230.05" cy="330.00" r="4" fill="#059669"><title>n=8</title></circle>
<circle cx="266.43" cy="302.43" r="4" fill="#059669"><title>n=214</title></circle>
<circle cx="289.38" cy="266.05" r="4" fill="#059669"><title>n=86</title></circle>
<rect x="520" y="240" width="10" height="10" fill="#059669"/>
<text x="538" y="250" font-size="12">candidate sigmoid</text>
<text x="280" y="537" text-anchor="middle" font-size="15">Mean predicted make probability</text>
<text transform="translate(20 280) rotate(-90)" text-anchor="middle" font-size="15">Observed make fraction</text>
<text x="60" y="566" font-size="12">No error bands: uncertainty intervals have not been evaluated.</text></g></svg>